<?xml version="1.0" encoding="utf-8"?>
<!-- Generator: Adobe Illustrator 21.1.0, SVG Export Plug-In . SVG Version: 6.00 Build 0)  -->
<svg version="1.1" xmlns="http://www.w3.org/2000/svg" xmlns:xlink="http://www.w3.org/1999/xlink" x="0px" y="0px"
	 viewBox="0 0 55 55" style="enable-background:new 0 0 55 55;" xml:space="preserve">
<style type="text/css">
	.st0{display:none;}
	.st1{display:inline;fill-rule:evenodd;clip-rule:evenodd;fill:#C39A6F;}
	.st2{fill:none;stroke:#FFFFFF;stroke-width:1.4;stroke-miterlimit:10;}
	.st3{fill:none;stroke:#FFFFFF;stroke-width:1.2;stroke-miterlimit:10;}
</style>
<g id="Layer_1" class="st0">
	<path id="XMLID_6_" class="st1" d="M16.3,26.1c0,0.2-0.7-6.3,5.3-10.1c6.9-4.2,14.6,0.8,15.4,1.8c1.4,1,8.7,7.7,3.9,18.4
		c-5.2,9.4-15.2,9.3-20.3,6.5c-8.6-4.7-8-13.2-8.1-13.5c3,11,12.8,11.6,13.4,11.7c4.4,0.7,12.6-2.1,13.2-11.2
		c0.1-7.8-6.2-11.2-9.1-11.7C21.7,16.4,17.2,22.8,16.3,26.1z"/>
	<path id="XMLID_4_" class="st1" d="M38.7,28.7c0-0.2,0.7,6.3-5.3,10.1c-6.9,4.2-14.6-0.8-15.4-1.8c-1.4-1-8.7-7.7-3.9-18.4
		c5.2-9.4,15.2-9.3,20.3-6.5c8.6,4.7,8,13.2,8.1,13.5c-3-11-12.8-11.6-13.4-11.7c-4.4-0.7-12.6,2.1-13.2,11.2
		C15.8,33,22.1,36.3,25,36.8C33.3,38.5,37.8,32.1,38.7,28.7z"/>
</g>
<g id="Layer_2">
	<g>
		<path class="st2" d="M26.6,42.4c-5.8-0.4-10.8-4-13-9.2c-2.6-6.3-0.5-14,5.3-18.1c6.1-4.3,14.7-3.4,19.7,2.2
			c4.7,5.1,5,12.9,1.4,18.4C37.2,40.1,32,42.8,26.6,42.4z"/>
		<path class="st3" d="M42.3,30.9c-4.2-3.2-7.8-4-10.3-4.2c-3.5-0.2-5.3,0.8-9.4,0.8c-4.2,0-7.7-1.2-9.8-2.2"/>
		<path class="st3" d="M13.8,33.5c5.3-0.9,8.9-2.7,11.3-4.3c3.4-2.3,5-4.6,9.2-6.4c2.7-1.2,5.2-1.6,6.9-1.8"/>
		<path class="st3" d="M22.3,41.6c-1.3-4.5-1-7.8-0.5-9.9c1.1-4.4,3.5-6.1,5.4-11.7c1.1-3.1,1.4-5.7,1.6-7.4"/>
	</g>
</g>
</svg>
