<?xml version="1.0" encoding="utf-8"?>
<!-- Generator: Adobe Illustrator 19.0.0, SVG Export Plug-In . SVG Version: 6.00 Build 0)  -->
<svg version="1.1" id="Layer_1" xmlns="http://www.w3.org/2000/svg" xmlns:xlink="http://www.w3.org/1999/xlink" x="0px" y="0px"
	 viewBox="0 0 30 30" style="enable-background:new 0 0 30 30;" xml:space="preserve">
<style type="text/css">
	.st0{fill:#FFFFFF;}
</style>
<path id="XMLID_1_" class="st0" d="M8.5,16h3v13.5c0,0.3,0.2,0.5,0.5,0.5h5.1c0.3,0,0.5-0.2,0.5-0.5V16H21c0.2,0,0.5-0.2,0.5-0.4
	l0.5-5c0-0.1,0-0.3-0.1-0.4c-0.1-0.1-0.2-0.2-0.4-0.2h-4V7c0-0.9,0.5-1.4,1.4-1.4c0.1,0,2.6,0,2.6,0c0.3,0,0.5-0.2,0.5-0.5V0.5
	C22,0.2,21.8,0,21.5,0h-3.6c0,0-0.1,0-0.2,0c-0.6,0-2.7,0.1-4.5,1.9c-1.9,1.9-1.6,4.1-1.6,4.5v3.7H8.5c-0.3,0-0.5,0.2-0.5,0.5v4.9
	C8,15.8,8.2,16,8.5,16z"/>
</svg>
