<?xml version="1.0" encoding="utf-8"?>
<!-- Generator: Adobe Illustrator 19.0.0, SVG Export Plug-In . SVG Version: 6.00 Build 0)  -->
<svg version="1.1" id="Layer_1" xmlns="http://www.w3.org/2000/svg" xmlns:xlink="http://www.w3.org/1999/xlink" x="0px" y="0px"
	 viewBox="0 0 30 30" style="enable-background:new 0 0 30 30;" xml:space="preserve">
<style type="text/css">
	.st0{fill:#FF60FF;stroke:#FF60FF;stroke-width:0.25;stroke-miterlimit:10;}
</style>
<g>
	<g>
		<path class="st0" d="M19.1,1.2h-6.9c-3,0-5.2,0.7-7,2.2c-1.5,1.3-2.3,3.1-2.3,5c0,2.9,2.2,5.8,6.2,5.8c0.4,0,0.9,0,1.1-0.1
			l-0.1,0.2c-0.2,0.4-0.3,0.8-0.3,1.3c0,1.1,0.6,1.8,1.1,2.5l0.1,0.1h-0.1c-1.6,0.1-4.8,0.3-7,1.7C1.2,21.5,1,23.8,1,24.5
			c-0.1,2.6,2.4,5.3,7.9,5.3c6.4,0,9.8-3.5,9.8-7.1c0-2.6-1.5-3.9-3.2-5.3l-1.2-0.9c-0.4-0.4-1-0.8-1-1.6s0.5-1.3,1-1.8l0.1-0.1
			c1.4-1.1,3.2-2.5,3.2-5.4s-1.8-4.3-2.7-5.1h2.3h0.1L19.1,1.2c0.2,0.1,0.2,0,0.2-0.1C19.2,1.2,19.2,1.2,19.1,1.2z M10.8,28.3
			c-3.9,0-6.6-1.8-6.6-4.6c0-1.8,1.1-3.1,3.2-3.8c1.7-0.6,3.9-0.6,3.9-0.6c0.4,0,0.6,0,0.9,0c2.8,1.9,4.1,3,4.1,5
			C16.3,26.7,14.2,28.3,10.8,28.3z M10.8,13.2c-3.2,0-4.7-4.3-4.7-6.7c0-1.1,0.3-2.1,0.9-2.8s1.6-1.1,2.6-1.1c3.1,0,4.7,4.1,4.7,6.9
			c0,0.5,0,1.8-1,2.8C12.7,12.8,11.7,13.2,10.8,13.2z"/>
		<path id="XMLID_1_" class="st0" d="M28.7,14.5h-3.6v-3.6c0-0.1-0.1-0.2-0.2-0.2h-1.5c-0.1,0-0.2,0.1-0.2,0.2v3.6h-3.4
			c-0.1,0-0.2,0.1-0.2,0.2v1.5c0,0.1,0.1,0.2,0.2,0.2h3.6V20c0,0.1,0.1,0.2,0.2,0.2h1.5c0.1,0,0.2-0.1,0.2-0.2v-3.5h3.6
			c0.1,0,0.2-0.1,0.2-0.2v-1.5C28.9,14.6,28.8,14.5,28.7,14.5z"/>
	</g>
</g>
</svg>
