<?xml version="1.0" encoding="utf-8"?>
<!-- Generator: Adobe Illustrator 19.0.0, SVG Export Plug-In . SVG Version: 6.00 Build 0)  -->
<svg version="1.1" id="Layer_1" xmlns="http://www.w3.org/2000/svg" xmlns:xlink="http://www.w3.org/1999/xlink" x="0px" y="0px"
	 viewBox="0 0 30 30" style="enable-background:new 0 0 30 30;" xml:space="preserve">
<style type="text/css">
	.st0{fill:#FFFFFF;}
</style>
<g>
	<g>
		<g>
			<path id="XMLID_1_" class="st0" d="M26.5,8.3c-0.8-5.9-6.7-8.9-13-8.2c-5,0.6-10,4.6-10.2,10.3c-0.1,3.5,0.9,6.2,4.2,6.9
				c1.4-2.6-0.5-3.1-0.8-5c-1.2-7.6,8.8-12.8,14-7.5c3.6,3.7,1.2,15-4.6,13.8c-5.6-1.1,2.7-10.1-1.7-11.9c-3.6-1.4-5.6,4.4-3.8,7.3
				c-1,5-3.2,9.7-2.3,15.9c2.8-2.1,3.8-6,4.6-10.2c1.4,0.9,2.2,1.8,4,1.9C23.7,22.3,27.5,15,26.5,8.3z"/>
		</g>
	</g>
</g>
</svg>
