<?xml version="1.0" encoding="utf-8"?>
<!-- Generator: Adobe Illustrator 19.0.0, SVG Export Plug-In . SVG Version: 6.00 Build 0)  -->
<svg version="1.1" id="Layer_1" xmlns="http://www.w3.org/2000/svg" xmlns:xlink="http://www.w3.org/1999/xlink" x="0px" y="0px"
	 viewBox="0 0 30 34" style="enable-background:new 0 0 30 34;" xml:space="preserve">
<style type="text/css">
	.st0{fill:#FFFFFF;}
</style>
<g id="XMLID_6_">
	<path class="st0" d="M15,33.8c-2.5,0-4.9-0.6-6.9-1.7C3.1,29.4,0.2,24.7,0.1,19c0-0.2,0-0.3,0-0.3c2.5,9.5,10.1,11.4,13.2,11.7
		l0.2,0c0.4,0.1,0.9,0.1,1.4,0.1c4.5,0,11.3-3,11.9-11.3c0.1-7.7-6.1-11.2-9.1-11.8c-0.9-0.2-1.7-0.3-2.6-0.3
		c-6.5,0-10.3,5.2-11.2,8.5c0-0.4-0.4-6.4,5.4-10C10.9,4.5,13,4,15.1,4C20,4,24,6.7,24.5,7.3c0.1,0.1,9.1,6.7,3.9,18.3
		C24.4,32.8,18.3,33.8,15,33.8z"/>
	<path d="M15.1,4C20,4,24,6.8,24.4,7.4l0,0l0,0c0.9,0.6,3,2.6,4.2,5.5c1.8,4,1.6,8.3-0.4,12.7c-3.9,7.1-10,8.1-13.3,8.1
		c-2.5,0-4.9-0.6-6.9-1.6c-4.9-2.6-7.7-7.1-8-12.6c2.8,8.8,10,10.6,13.1,11c0.1,0,0.1,0,0.2,0c0.4,0.1,0.9,0.1,1.4,0.1
		c4.5,0,11.4-3,11.9-11.4c0.1-4.3-1.8-7.1-3.5-8.7c-2-1.9-4.3-2.9-5.7-3.1c-0.9-0.2-1.7-0.3-2.6-0.3c-6.2,0-9.9,4.7-11.1,8
		c0-1.6,0.5-6.4,5.3-9.4C11,4.6,13,4,15.1,4 M15.1,3.9c-2,0-4,0.5-6,1.7C3.2,9.3,3.8,15.7,3.8,15.7c0,0,0,0,0,0
		c0.8-3,4.5-8.5,11.1-8.5c0.8,0,1.7,0.1,2.6,0.3c2.9,0.5,9.2,3.9,9.1,11.7c-0.5,8.2-7.3,11.3-11.8,11.3c-0.5,0-0.9,0-1.4-0.1
		C12.8,30.3,3,29.7,0,18.7c0.1,0.4-0.5,8.8,8.1,13.5c1.8,1,4.3,1.7,6.9,1.7c4.7,0,10.1-2.1,13.4-8.2C33.2,15,25.9,8.3,24.5,7.3
		C23.9,6.6,19.9,3.9,15.1,3.9L15.1,3.9z M0,18.7C0,18.7,0,18.7,0,18.7C0,18.7,0,18.7,0,18.7L0,18.7z"/>
</g>
<g id="XMLID_4_">
	<path class="st0" d="M14.9,30C10,30,6,27.3,5.5,26.7C5.4,26.6-3.6,20,1.6,8.3c3.9-7.1,10-8.1,13.3-8.1c2.5,0,4.9,0.6,6.9,1.7
		c5,2.7,7.9,7.4,8.1,13.2c0,0.2,0,0.3,0,0.3C26.9,3.9,16.7,3.6,16.6,3.6c-0.5-0.1-1-0.1-1.6-0.1c-4.4,0-11.2,3-11.7,11.3
		c-0.1,7.7,6.1,11.2,9.1,11.8c0.9,0.2,1.8,0.3,2.7,0.3c6.4,0,10.2-5.1,11.1-8.4c0,0.4,0.4,6.4-5.4,10C19.1,29.5,17,30,14.9,30z"/>
	<path d="M15,0.2c2.5,0,4.9,0.6,6.9,1.6c4.8,2.6,7.7,7.1,8,12.6c-3.4-10.6-13.1-11-13.2-11c0,0,0,0,0,0c-0.5-0.1-1-0.1-1.6-0.1
		C7,3.4,3.6,10.1,3.3,14.7c-0.1,4.3,1.8,7.1,3.5,8.7c2,1.9,4.3,2.9,5.7,3.1c0.9,0.2,1.8,0.3,2.7,0.3c6.1,0,9.8-4.6,10.9-7.9
		c0,1.6-0.5,6.4-5.3,9.4C19,29.4,17,30,14.9,30C10,30,6,27.2,5.6,26.6l0,0l0,0c-0.9-0.6-3-2.6-4.2-5.5c-1.8-4-1.6-8.3,0.4-12.7
		C5.6,1.3,11.7,0.2,15,0.2 M15,0.1c-4.7,0-10.1,2.1-13.4,8.2C-3.2,19,4.1,25.7,5.5,26.7c0.6,0.7,4.6,3.4,9.4,3.4c2,0,4-0.5,6-1.7
		c5.9-3.7,5.3-10.1,5.3-10.1c0,0,0,0,0,0c-0.8,3-4.4,8.4-11,8.4c-0.8,0-1.7-0.1-2.7-0.3c-2.9-0.5-9.2-3.9-9.1-11.7
		C3.9,6.6,10.5,3.5,15,3.5c0.5,0,1.1,0,1.6,0.1C17.2,3.6,27,4.3,30,15.3c-0.1-0.4,0.4-8.8-8.1-13.5C20.1,0.8,17.6,0.1,15,0.1L15,0.1
		z M30,15.3C30,15.3,30,15.3,30,15.3C30,15.3,30,15.3,30,15.3L30,15.3z"/>
</g>
</svg>
